<?xml version="1.0" standalone="no"?>
<!DOCTYPE svg PUBLIC "-//W3C//DTD SVG 20010904//EN"
 "http://www.w3.org/TR/2001/REC-SVG-20010904/DTD/svg10.dtd">
<svg version="1.0" xmlns="http://www.w3.org/2000/svg"
 width="205.000000pt" height="209.000000pt" viewBox="0 0 205.000000 209.000000"
 preserveAspectRatio="xMidYMid meet">

<g transform="translate(0.000000,209.000000) scale(0.100000,-0.100000)"
fill="#000000" stroke="none">
<path d="M74 2084 c-12 -3 -32 -16 -45 -30 l-24 -26 -3 -980 -2 -980 34 -34
34 -34 962 0 962 0 29 29 29 29 0 985 0 984 -25 27 -24 26 -273 0 c-150 0
-579 2 -953 5 -374 2 -690 1 -701 -1z m1840 -459 c0 -176 -1 -582 -2 -902 l-2
-583 -879 0 -879 0 -4 898 c-3 493 -4 899 -2 902 1 3 400 5 886 5 l883 0 -1
-320z"/>
<path d="M420 1040 l0 -671 248 3 c244 3 248 3 304 30 81 38 151 107 193 191
32 64 35 77 35 157 0 107 -24 179 -82 245 l-40 45 32 37 c187 213 60 557 -227
618 -46 10 -132 15 -265 15 l-198 0 0 -670z m496 502 c126 -65 183 -208 126
-318 -29 -57 -98 -117 -126 -110 -11 3 -96 6 -188 6 l-168 0 0 226 0 226 158
-4 c136 -4 163 -7 198 -26z m44 -592 c120 -68 141 -242 41 -353 -20 -22 -58
-51 -86 -63 -45 -22 -64 -24 -202 -24 l-153 0 0 236 0 236 178 -4 c167 -3 179
-4 222 -28z"/>
<path d="M1480 1600 l0 -110 70 0 70 0 0 110 0 110 -70 0 -70 0 0 -110z"/>
<path d="M1480 792 l0 -429 70 -2 70 -2 0 430 0 431 -70 0 -70 0 0 -428z"/>
</g>
</svg>
